<svg width="18" height="21" viewBox="0 0 18 21" fill="none" xmlns="http://www.w3.org/2000/svg">
<mask id="path-1-inside-1_369_386" fill="white">
<path fill-rule="evenodd" clip-rule="evenodd" d="M12.6141 12.1921C14.3681 11.0618 15.5294 9.09176 15.5294 6.85061C15.5294 3.34326 12.6851 0.5 9.17647 0.5C5.66784 0.5 2.82353 3.34326 2.82353 6.85061C2.82353 9.19281 4.09196 11.2389 5.97961 12.3398V13.3081C3.9576 13.7097 2.09195 14.5075 0.691105 15.7015C-0.414659 17.126 0.138218 20.5 0.138218 20.5H17.8917C17.8917 20.5 18.2826 18.0009 17.579 15.7015C16.2532 14.5716 14.5111 13.7965 12.6141 13.3761V12.1921Z"/>
</mask>
<path fill-rule="evenodd" clip-rule="evenodd" d="M12.6141 12.1921C14.3681 11.0618 15.5294 9.09176 15.5294 6.85061C15.5294 3.34326 12.6851 0.5 9.17647 0.5C5.66784 0.5 2.82353 3.34326 2.82353 6.85061C2.82353 9.19281 4.09196 11.2389 5.97961 12.3398V13.3081C3.9576 13.7097 2.09195 14.5075 0.691105 15.7015C-0.414659 17.126 0.138218 20.5 0.138218 20.5H17.8917C17.8917 20.5 18.2826 18.0009 17.579 15.7015C16.2532 14.5716 14.5111 13.7965 12.6141 13.3761V12.1921Z" fill="#F5F5F5"/>
<path d="M12.6141 12.1921L12.3433 11.7718L12.1141 11.9194V12.1921H12.6141ZM5.97961 12.3398H6.47961V12.0526L6.23151 11.9079L5.97961 12.3398ZM5.97961 13.3081L6.07702 13.7985L6.47961 13.7186V13.3081H5.97961ZM0.691105 15.7015L0.366768 15.321L0.32765 15.3543L0.296133 15.3949L0.691105 15.7015ZM0.138218 20.5L-0.355201 20.5808L-0.286517 21H0.138218V20.5ZM17.8917 20.5V21H18.3196L18.3857 20.5772L17.8917 20.5ZM17.579 15.7015L18.0571 15.5552L18.0144 15.4156L17.9033 15.321L17.579 15.7015ZM12.6141 13.3761H12.1141V13.7775L12.506 13.8643L12.6141 13.3761ZM15.0294 6.85061C15.0294 8.9147 13.9605 10.7296 12.3433 11.7718L12.885 12.6123C14.7757 11.3939 16.0294 9.26881 16.0294 6.85061H15.0294ZM9.17647 1C12.4091 1 15.0294 3.61958 15.0294 6.85061H16.0294C16.0294 3.06695 12.9611 0 9.17647 0V1ZM3.32353 6.85061C3.32353 3.61958 5.94381 1 9.17647 1V0C5.39187 0 2.32353 3.06695 2.32353 6.85061H3.32353ZM6.23151 11.9079C4.49111 10.8928 3.32353 9.00769 3.32353 6.85061H2.32353C2.32353 9.37792 3.69282 11.5849 5.72771 12.7717L6.23151 11.9079ZM5.47961 12.3398V13.3081H6.47961V12.3398H5.47961ZM5.8822 12.8177C3.79889 13.2315 1.84809 14.0584 0.366768 15.321L1.01544 16.082C2.33581 14.9566 4.11632 14.188 6.07702 13.7985L5.8822 12.8177ZM0.296133 15.3949C-0.0469226 15.8369 -0.240784 16.3996 -0.352006 16.9539C-0.464368 17.5138 -0.499999 18.1046 -0.5 18.6349C-0.500001 19.1672 -0.464057 19.651 -0.428307 20.0013C-0.410391 20.1768 -0.39242 20.3198 -0.378795 20.4198C-0.371979 20.4698 -0.366241 20.509 -0.362129 20.5363C-0.360073 20.5499 -0.358422 20.5606 -0.357245 20.568C-0.356656 20.5718 -0.356186 20.5747 -0.355842 20.5769C-0.355671 20.5779 -0.355531 20.5788 -0.355423 20.5795C-0.35537 20.5798 -0.355324 20.5801 -0.355287 20.5803C-0.355269 20.5804 -0.355247 20.5805 -0.355238 20.5806C-0.355218 20.5807 -0.355201 20.5808 0.138218 20.5C0.631638 20.4191 0.631651 20.4192 0.631662 20.4193C0.631663 20.4193 0.631672 20.4193 0.631673 20.4193C0.631677 20.4194 0.631672 20.4193 0.63166 20.4193C0.631634 20.4191 0.631576 20.4187 0.631486 20.4182C0.631306 20.4171 0.631001 20.4151 0.630577 20.4125C0.629729 20.4071 0.628411 20.3986 0.626688 20.3872C0.623241 20.3643 0.61818 20.3297 0.612038 20.2847C0.599747 20.1945 0.583164 20.0628 0.566525 19.8998C0.533165 19.5729 0.499999 19.1243 0.5 18.6349C0.500001 18.1437 0.533481 17.6239 0.62845 17.1506C0.72456 16.6716 0.87625 16.2784 1.08608 16.0081L0.296133 15.3949ZM0.138218 21H17.8917V20H0.138218V21ZM17.8917 20.5C18.3857 20.5772 18.3857 20.5771 18.3857 20.577C18.3857 20.577 18.3858 20.5768 18.3858 20.5767C18.3858 20.5765 18.3858 20.5763 18.3859 20.576C18.386 20.5754 18.3861 20.5747 18.3862 20.5738C18.3865 20.5721 18.3869 20.5697 18.3873 20.5667C18.3882 20.5608 18.3894 20.5525 18.3909 20.542C18.3939 20.5208 18.3981 20.4904 18.4031 20.4515C18.413 20.3738 18.4262 20.2617 18.4396 20.1208C18.4663 19.8392 18.4941 19.4408 18.4992 18.9684C18.5093 18.0285 18.4296 16.7724 18.0571 15.5552L17.1008 15.8478C17.432 16.9299 17.5087 18.0731 17.4992 18.9576C17.4945 19.3974 17.4686 19.7675 17.444 20.0263C17.4318 20.1556 17.4199 20.2568 17.4112 20.3247C17.4068 20.3586 17.4033 20.3842 17.4009 20.4007C17.3998 20.409 17.3989 20.415 17.3983 20.4187C17.398 20.4206 17.3978 20.4218 17.3977 20.4225C17.3977 20.4228 17.3977 20.423 17.3977 20.423C17.3977 20.4231 17.3977 20.423 17.3977 20.423C17.3977 20.423 17.3977 20.4229 17.3977 20.4229C17.3977 20.4228 17.3977 20.4227 17.8917 20.5ZM17.9033 15.321C16.5011 14.1259 14.6785 13.3214 12.7223 12.888L12.506 13.8643C14.3437 14.2715 16.0053 15.0172 17.2546 16.082L17.9033 15.321ZM13.1141 13.3761V12.1921H12.1141V13.3761H13.1141Z" fill="black" mask="url(#path-1-inside-1_369_386)"/>
</svg>
