<svg width="20" height="19" viewBox="0 0 20 19" fill="current" xmlns="http://www.w3.org/2000/svg">
<path fill-rule="current" clip-rule="evenodd" d="M5 0H6V2H14V0H15V2H20V19H0V2H5V0ZM18 5H2V17H18V5Z" fill="current"/>
<rect x="7" y="7" width="2" height="2" fill="url(#paint0_linear_277_5929)"/>
<rect x="11" y="7" width="2" height="2" fill="current"/>
<rect x="3" y="10" width="2" height="2" fill="current"/>
<rect x="11" y="10" width="2" height="2" fill="current"/>
<rect x="3" y="13" width="2" height="2" fill="current"/>
<rect x="15" y="7" width="2" height="2" fill="current"/>
<rect x="7" y="10" width="2" height="2" fill="current"/>
<rect x="15" y="10" width="2" height="2" fill="current"/>
<rect x="7" y="13" width="2" height="2" fill="current"/>
<rect x="11" y="13" width="2" height="2" fill="current"/>
<defs>
<linearGradient id="paint0_linear_277_5929" x1="9" y1="8" x2="7" y2="8" gradientUnits="userSpaceOnUse">
<stop stop-color="#292929"/>
<stop offset="1" stop-color="#292929" stop-opacity="0.5"/>
</linearGradient>
<linearGradient id="paint1_linear_277_5929" x1="13" y1="8" x2="11" y2="8" gradientUnits="userSpaceOnUse">
<stop stop-color="#292929"/>
<stop offset="1" stop-color="#292929" stop-opacity="0.5"/>
</linearGradient>
<linearGradient id="paint2_linear_277_5929" x1="5" y1="11" x2="3" y2="11" gradientUnits="userSpaceOnUse">
<stop stop-color="#292929"/>
<stop offset="1" stop-color="#292929" stop-opacity="0.5"/>
</linearGradient>
<linearGradient id="paint3_linear_277_5929" x1="13" y1="11" x2="11" y2="11" gradientUnits="userSpaceOnUse">
<stop stop-color="#292929"/>
<stop offset="1" stop-color="#292929" stop-opacity="0.5"/>
</linearGradient>
<linearGradient id="paint4_linear_277_5929" x1="5" y1="14" x2="3" y2="14" gradientUnits="userSpaceOnUse">
<stop stop-color="#292929"/>
<stop offset="1" stop-color="#292929" stop-opacity="0.5"/>
</linearGradient>
<linearGradient id="paint5_linear_277_5929" x1="17" y1="8" x2="15" y2="8" gradientUnits="userSpaceOnUse">
<stop stop-color="#292929"/>
<stop offset="1" stop-color="#292929" stop-opacity="0.5"/>
</linearGradient>
<linearGradient id="paint6_linear_277_5929" x1="9" y1="11" x2="7" y2="11" gradientUnits="userSpaceOnUse">
<stop stop-color="#292929"/>
<stop offset="1" stop-color="#292929" stop-opacity="0.5"/>
</linearGradient>
<linearGradient id="paint7_linear_277_5929" x1="17" y1="11" x2="15" y2="11" gradientUnits="userSpaceOnUse">
<stop stop-color="#292929"/>
<stop offset="1" stop-color="#292929" stop-opacity="0.5"/>
</linearGradient>
<linearGradient id="paint8_linear_277_5929" x1="9" y1="14" x2="7" y2="14" gradientUnits="userSpaceOnUse">
<stop stop-color="#292929"/>
<stop offset="1" stop-color="#292929" stop-opacity="0.5"/>
</linearGradient>
<linearGradient id="paint9_linear_277_5929" x1="13" y1="14" x2="11" y2="14" gradientUnits="userSpaceOnUse">
<stop stop-color="#292929"/>
<stop offset="1" stop-color="#292929" stop-opacity="0.5"/>
</linearGradient>
</defs>
</svg>
