<svg width="50" height="36" viewBox="0 0 50 36" fill="none" xmlns="http://www.w3.org/2000/svg">
<path d="M27.6918 35.4721C27.4981 35.305 27.3444 35.1065 27.2396 34.8879C27.1348 34.6694 27.0808 34.4352 27.0808 34.1987C27.0808 33.9622 27.1348 33.728 27.2396 33.5095C27.3444 33.291 27.4981 33.0925 27.6918 32.9253L42.8866 19.7997L2.08327 19.7997C1.53075 19.7997 1.00086 19.61 0.610171 19.2725C0.219485 18.935 -8.07662e-07 18.4771 -7.86796e-07 17.9998C-7.6593e-07 17.5224 0.219485 17.0646 0.610172 16.7271C1.00086 16.3895 1.53075 16.1999 2.08327 16.1999L42.8866 16.1999L27.6918 3.07429C27.3009 2.73656 27.0813 2.2785 27.0813 1.80088C27.0813 1.32326 27.3009 0.865195 27.6918 0.527464C28.0827 0.189734 28.6129 -9.31302e-07 29.1657 -9.10696e-07C29.7185 -8.9009e-07 30.2487 0.189734 30.6396 0.527465L49.389 16.7264C49.5827 16.8935 49.7364 17.092 49.8412 17.3105C49.946 17.529 50 17.7633 50 17.9998C50 18.2363 49.946 18.4705 49.8412 18.689C49.7364 18.9075 49.5827 19.106 49.389 19.2732L30.6396 35.4721C30.4461 35.6395 30.2164 35.7722 29.9635 35.8628C29.7106 35.9534 29.4395 36 29.1657 36C28.8919 36 28.6208 35.9534 28.3679 35.8628C28.115 35.7722 27.8853 35.6395 27.6918 35.4721Z" fill="#F5F5F5"/>
</svg>
