<svg width="20" height="20" viewBox="0 0 20 20" fill="none" xmlns="http://www.w3.org/2000/svg">
<path fill-rule="evenodd" clip-rule="evenodd" d="M20 8.5C20 12.9183 15.5228 16.5 10 16.5C8.67818 16.5 7.41625 16.2948 6.26128 15.9221L0 19.5L2.89275 14.1278C1.10438 12.6824 0 10.6944 0 8.5C0 4.08172 4.47715 0.5 10 0.5C15.5228 0.5 20 4.08172 20 8.5ZM9.41903 10.8409V10.7855C9.42519 10.1977 9.48674 9.72988 9.60369 9.3821C9.72064 9.03433 9.88684 8.75272 10.1023 8.53729C10.3177 8.32185 10.5762 8.12334 10.8778 7.94176C11.0594 7.83097 11.2225 7.70017 11.3672 7.54936C11.5118 7.39548 11.6257 7.21851 11.7088 7.01847C11.795 6.81842 11.8381 6.59683 11.8381 6.35369C11.8381 6.05208 11.7673 5.79048 11.6257 5.56889C11.4841 5.3473 11.2949 5.17649 11.0579 5.05646C10.8209 4.93643 10.5578 4.87642 10.2685 4.87642C10.0161 4.87642 9.77296 4.92874 9.53906 5.03338C9.30516 5.13802 9.10973 5.30268 8.95277 5.52734C8.79581 5.75201 8.70502 6.04593 8.6804 6.40909H7.51705C7.54167 5.88589 7.67708 5.43809 7.9233 5.0657C8.17259 4.6933 8.50035 4.40862 8.9066 4.21165C9.31593 4.01468 9.76989 3.91619 10.2685 3.91619C10.8101 3.91619 11.281 4.02391 11.6811 4.23935C12.0843 4.45478 12.3951 4.75024 12.6136 5.12571C12.8352 5.50118 12.946 5.92898 12.946 6.40909C12.946 6.74763 12.8937 7.05386 12.7891 7.32777C12.6875 7.60168 12.5398 7.84635 12.3459 8.06179C12.1551 8.27723 11.9242 8.46804 11.6534 8.63423C11.3826 8.8035 11.1656 8.98201 11.0025 9.16974C10.8394 9.3544 10.7209 9.57446 10.647 9.8299C10.5732 10.0853 10.5331 10.4039 10.527 10.7855V10.8409H9.41903ZM10.0099 13.5739C9.7822 13.5739 9.58677 13.4923 9.42365 13.3292C9.26054 13.1661 9.17898 12.9706 9.17898 12.7429C9.17898 12.5152 9.26054 12.3197 9.42365 12.1566C9.58677 11.9935 9.7822 11.9119 10.0099 11.9119C10.2377 11.9119 10.4331 11.9935 10.5962 12.1566C10.7594 12.3197 10.8409 12.5152 10.8409 12.7429C10.8409 12.8937 10.8024 13.0322 10.7255 13.1584C10.6516 13.2846 10.5516 13.3861 10.4254 13.4631C10.3023 13.5369 10.1638 13.5739 10.0099 13.5739Z" fill="white"/>
</svg>
