<svg width="20" height="21" viewBox="0 0 20 21" fill="none" xmlns="http://www.w3.org/2000/svg">
<mask id="path-1-inside-1_50_1461" fill="white">
<path fill-rule="evenodd" clip-rule="evenodd" d="M18.5714 7.61758C18.5714 8.96472 18.0103 10.1607 17.1428 10.912V11.3538C18.0376 11.7417 18.9207 12.3848 19.7768 13.2831C20 14.6631 20 17.4998 20 17.4998L10.0081 17.4997C10.0081 17.4997 9.9094 14.8634 10.4027 13.2831C11.2015 12.4449 12.0238 11.8288 12.8571 11.435V10.9119C11.9897 10.1607 11.4286 8.9647 11.4286 7.61758C11.4286 5.34351 13.0275 3.5 15 3.5C16.9724 3.5 18.5714 5.34351 18.5714 7.61758Z"/>
</mask>
<path fill-rule="evenodd" clip-rule="evenodd" d="M18.5714 7.61758C18.5714 8.96472 18.0103 10.1607 17.1428 10.912V11.3538C18.0376 11.7417 18.9207 12.3848 19.7768 13.2831C20 14.6631 20 17.4998 20 17.4998L10.0081 17.4997C10.0081 17.4997 9.9094 14.8634 10.4027 13.2831C11.2015 12.4449 12.0238 11.8288 12.8571 11.435V10.9119C11.9897 10.1607 11.4286 8.9647 11.4286 7.61758C11.4286 5.34351 13.0275 3.5 15 3.5C16.9724 3.5 18.5714 5.34351 18.5714 7.61758Z" fill="white"/>
<path d="M17.1428 10.912L16.7271 10.4319L16.5078 10.6218V10.912H17.1428ZM17.1428 11.3538H16.5078V11.7706L16.8902 11.9364L17.1428 11.3538ZM19.7768 13.2831L20.4037 13.1817L20.3723 12.9875L20.2365 12.845L19.7768 13.2831ZM20 17.4998L20 18.1348L20.6351 18.1348V17.4998H20ZM10.0081 17.4997L9.37344 17.5235L9.39632 18.1348L10.0081 18.1348L10.0081 17.4997ZM10.4027 13.2831L9.94291 12.845L9.84063 12.9524L9.79645 13.0939L10.4027 13.2831ZM12.8571 11.435L13.1284 12.0092L13.4922 11.8373V11.435H12.8571ZM12.8571 10.9119H13.4922V10.6218L13.2728 10.4319L12.8571 10.9119ZM17.5586 11.392C18.5733 10.5133 19.2065 9.13819 19.2065 7.61758H17.9364C17.9364 8.79124 17.4473 9.8082 16.7271 10.4319L17.5586 11.392ZM17.7779 11.3538V10.912H16.5078V11.3538H17.7779ZM16.8902 11.9364C17.6903 12.2833 18.5056 12.8698 19.3171 13.7213L20.2365 12.845C19.3357 11.8998 18.3849 11.2001 17.3954 10.7711L16.8902 11.9364ZM19.1499 13.3845C19.2542 14.0293 19.3094 15.0459 19.3374 15.929C19.3511 16.3647 19.3581 16.7581 19.3615 17.0427C19.3632 17.1848 19.3641 17.2996 19.3645 17.3786C19.3647 17.4181 19.3648 17.4487 19.3649 17.4692C19.3649 17.4795 19.3649 17.4872 19.3649 17.4924C19.3649 17.4949 19.3649 17.4969 19.3649 17.4981C19.3649 17.4987 19.3649 17.4992 19.3649 17.4994C19.3649 17.4996 19.3649 17.4997 19.3649 17.4997C19.3649 17.4998 19.3649 17.4998 19.3649 17.4998C19.3649 17.4998 19.3649 17.4998 20 17.4998C20.6351 17.4998 20.6351 17.4997 20.6351 17.4997C20.6351 17.4996 20.6351 17.4996 20.6351 17.4995C20.6351 17.4994 20.6351 17.4992 20.6351 17.499C20.6351 17.4986 20.6351 17.498 20.6351 17.4973C20.6351 17.4958 20.6351 17.4936 20.635 17.4908C20.635 17.4851 20.635 17.4768 20.635 17.4659C20.6349 17.4442 20.6348 17.4125 20.6346 17.3717C20.6342 17.2902 20.6333 17.1726 20.6315 17.0273C20.628 16.7368 20.6209 16.3348 20.6068 15.8889C20.579 15.0087 20.5226 13.9169 20.4037 13.1817L19.1499 13.3845ZM20 16.8647L10.0081 16.8647L10.0081 18.1348L20 18.1348L20 16.8647ZM10.0081 17.4997C10.6427 17.476 10.6427 17.476 10.6427 17.4761C10.6427 17.4761 10.6427 17.4761 10.6427 17.4761C10.6427 17.4761 10.6427 17.4761 10.6427 17.476C10.6427 17.4759 10.6427 17.4756 10.6426 17.4751C10.6426 17.4742 10.6425 17.4727 10.6425 17.4705C10.6423 17.4662 10.6421 17.4594 10.6418 17.4503C10.6413 17.4322 10.6405 17.4047 10.6397 17.3687C10.638 17.2969 10.6361 17.1914 10.6354 17.0595C10.6339 16.7954 10.6369 16.4271 10.6548 16.0114C10.6914 15.1642 10.7882 14.1794 11.0089 13.4724L9.79645 13.0939C9.52388 13.9671 9.42332 15.0906 9.38592 15.9566C9.36688 16.3976 9.36372 16.7871 9.3653 17.0667C9.3661 17.2067 9.36808 17.3195 9.36989 17.398C9.3708 17.4373 9.37166 17.468 9.37231 17.4892C9.37263 17.4998 9.3729 17.508 9.3731 17.5138C9.3732 17.5166 9.37328 17.5189 9.37334 17.5205C9.37336 17.5213 9.37339 17.522 9.37341 17.5225C9.37342 17.5227 9.37342 17.5229 9.37343 17.5231C9.37343 17.5232 9.37344 17.5233 9.37344 17.5233C9.37344 17.5234 9.37344 17.5235 10.0081 17.4997ZM10.8624 13.7212C11.6194 12.9269 12.38 12.3629 13.1284 12.0092L12.5858 10.8609C11.6675 11.2948 10.7836 11.9629 9.94291 12.845L10.8624 13.7212ZM12.2221 10.9119V11.435H13.4922V10.9119H12.2221ZM10.7935 7.61758C10.7935 9.13817 11.4267 10.5133 12.4414 11.392L13.2728 10.4319C12.5526 9.80817 12.0636 8.79123 12.0636 7.61758H10.7935ZM15 2.86495C12.595 2.86495 10.7935 5.08063 10.7935 7.61758H12.0636C12.0636 5.60638 13.4601 4.13505 15 4.13505V2.86495ZM19.2065 7.61758C19.2065 5.08063 17.405 2.86495 15 2.86495V4.13505C16.5399 4.13505 17.9364 5.60638 17.9364 7.61758H19.2065Z" fill="black" mask="url(#path-1-inside-1_50_1461)"/>
<mask id="path-3-inside-2_50_1461" fill="white">
<path fill-rule="evenodd" clip-rule="evenodd" d="M16.2857 7.20588C16.2857 8.74544 15.6124 10.1123 14.5714 10.9709V11.4762C15.6451 11.9195 16.7048 12.6545 17.7321 13.6812C18 15.2583 18 18.5002 18 18.5002L6.00967 18.5002C6.00967 18.5002 5.89128 15.4872 6.48319 13.6812C7.44177 12.7231 8.42855 12.0191 9.42858 11.569V10.971C8.38759 10.1124 7.71423 8.74551 7.71423 7.20588C7.71423 4.6069 9.63301 2.5 11.9999 2.5C14.3669 2.5 16.2857 4.6069 16.2857 7.20588Z"/>
</mask>
<path fill-rule="evenodd" clip-rule="evenodd" d="M16.2857 7.20588C16.2857 8.74544 15.6124 10.1123 14.5714 10.9709V11.4762C15.6451 11.9195 16.7048 12.6545 17.7321 13.6812C18 15.2583 18 18.5002 18 18.5002L6.00967 18.5002C6.00967 18.5002 5.89128 15.4872 6.48319 13.6812C7.44177 12.7231 8.42855 12.0191 9.42858 11.569V10.971C8.38759 10.1124 7.71423 8.74551 7.71423 7.20588C7.71423 4.6069 9.63301 2.5 11.9999 2.5C14.3669 2.5 16.2857 4.6069 16.2857 7.20588Z" fill="white"/>
<path d="M14.5714 10.9709L14.1674 10.481L13.9364 10.6715V10.9709H14.5714ZM14.5714 11.4762H13.9364V11.901L14.3291 12.0632L14.5714 11.4762ZM17.7321 13.6812L18.3582 13.5749L18.3243 13.3752L18.1811 13.232L17.7321 13.6812ZM18 18.5002L18 19.1353H18.6351V18.5002H18ZM6.00967 18.5002L5.3751 18.5252L5.39907 19.1353L6.00966 19.1353L6.00967 18.5002ZM6.48319 13.6812L6.03426 13.232L5.92696 13.3392L5.87972 13.4834L6.48319 13.6812ZM9.42858 11.569L9.68921 12.1481L10.0636 11.9796V11.569H9.42858ZM9.42858 10.971H10.0636V10.6716L9.83264 10.4811L9.42858 10.971ZM14.9755 11.4608C16.1664 10.4786 16.9207 8.93023 16.9207 7.20588H15.6506C15.6506 8.56066 15.0583 9.74608 14.1674 10.481L14.9755 11.4608ZM15.2065 11.4762V10.9709H13.9364V11.4762H15.2065ZM14.3291 12.0632C15.3103 12.4683 16.3021 13.1499 17.2832 14.1304L18.1811 13.232C17.1075 12.1591 15.98 11.3707 14.8138 10.8892L14.3291 12.0632ZM17.1061 13.7875C17.2319 14.5287 17.2983 15.6941 17.3318 16.7032C17.3484 17.2016 17.3567 17.6517 17.3608 17.9771C17.3629 18.1398 17.3639 18.2711 17.3644 18.3615C17.3647 18.4067 17.3648 18.4416 17.3649 18.4652C17.3649 18.4769 17.3649 18.4858 17.3649 18.4917C17.3649 18.4947 17.3649 18.4969 17.3649 18.4983C17.3649 18.499 17.3649 18.4995 17.3649 18.4999C17.3649 18.5 17.3649 18.5001 17.3649 18.5002C17.3649 18.5002 17.3649 18.5002 17.3649 18.5003C17.3649 18.5003 17.3649 18.5002 18 18.5002C18.6351 18.5002 18.6351 18.5002 18.6351 18.5002C18.6351 18.5001 18.6351 18.5001 18.6351 18.5C18.6351 18.4999 18.6351 18.4997 18.6351 18.4994C18.6351 18.499 18.6351 18.4983 18.6351 18.4975C18.6351 18.4958 18.6351 18.4933 18.635 18.4901C18.635 18.4836 18.635 18.4741 18.635 18.4617C18.6349 18.437 18.6348 18.4008 18.6345 18.3542C18.634 18.2612 18.6329 18.1269 18.6308 17.961C18.6266 17.6293 18.6181 17.1703 18.6012 16.6611C18.5678 15.655 18.5002 14.4108 18.3582 13.5749L17.1061 13.7875ZM18 17.8652L6.00967 17.8652L6.00966 19.1353L18 19.1353L18 17.8652ZM6.00967 18.5002C6.64423 18.4753 6.64423 18.4754 6.64423 18.4754L6.64424 18.4754C6.64424 18.4754 6.64423 18.4754 6.64423 18.4753C6.64422 18.4751 6.64421 18.4748 6.64419 18.4742C6.64415 18.4731 6.64408 18.4713 6.64399 18.4688C6.64381 18.4638 6.64354 18.456 6.64321 18.4456C6.64254 18.4247 6.6416 18.3931 6.6406 18.3519C6.63861 18.2694 6.63636 18.1485 6.63546 17.9974C6.63366 17.6949 6.63727 17.273 6.65886 16.7967C6.7028 15.8278 6.81903 14.6955 7.08666 13.879L5.87972 13.4834C5.55543 14.4729 5.43491 15.7501 5.39006 16.7392C5.36726 17.242 5.36347 17.6862 5.36537 18.005C5.36632 18.1646 5.3687 18.2932 5.37087 18.3826C5.37195 18.4273 5.37298 18.4622 5.37375 18.4863C5.37414 18.4984 5.37446 18.5077 5.37469 18.5142C5.37481 18.5175 5.37491 18.52 5.37497 18.5219C5.37501 18.5228 5.37504 18.5235 5.37506 18.5241C5.37507 18.5243 5.37508 18.5246 5.37508 18.5248C5.37509 18.5248 5.37509 18.525 5.37509 18.525C5.3751 18.5251 5.3751 18.5252 6.00967 18.5002ZM6.93211 14.1304C7.84748 13.2155 8.77238 12.5607 9.68921 12.1481L9.16795 10.9899C8.08472 11.4774 7.03606 12.2308 6.03426 13.232L6.93211 14.1304ZM8.79352 10.971V11.569H10.0636V10.971H8.79352ZM7.07917 7.20588C7.07917 8.9303 7.83358 10.4787 9.02452 11.4609L9.83264 10.4811C8.94159 9.74618 8.34928 8.56071 8.34928 7.20588H7.07917ZM11.9999 1.86495C9.22769 1.86495 7.07917 4.31336 7.07917 7.20588H8.34928C8.34928 4.90043 10.0383 3.13505 11.9999 3.13505V1.86495ZM16.9207 7.20588C16.9207 4.31336 14.7722 1.86495 11.9999 1.86495V3.13505C13.9616 3.13505 15.6506 4.90043 15.6506 7.20588H16.9207Z" fill="black" mask="url(#path-3-inside-2_50_1461)"/>
<mask id="path-5-inside-3_50_1461" fill="white">
<path fill-rule="evenodd" clip-rule="evenodd" d="M12.8571 6.79412C12.8571 8.52616 12.0155 10.0639 10.7143 11.0298V11.5979C12.0564 12.0967 13.381 12.9235 14.6652 14.0786C15 15.8528 15 19.5 15 19.5L0.0120813 19.5C0.0120813 19.5 -0.135904 16.1104 0.603984 14.0785C1.80221 13.0007 3.03568 12.2087 4.28571 11.7023V11.0298C2.98452 10.0639 2.14286 8.52616 2.14286 6.79412C2.14286 3.87026 4.54133 1.5 7.5 1.5C10.4587 1.5 12.8571 3.87026 12.8571 6.79412Z"/>
</mask>
<path fill-rule="evenodd" clip-rule="evenodd" d="M12.8571 6.79412C12.8571 8.52616 12.0155 10.0639 10.7143 11.0298V11.5979C12.0564 12.0967 13.381 12.9235 14.6652 14.0786C15 15.8528 15 19.5 15 19.5L0.0120813 19.5C0.0120813 19.5 -0.135904 16.1104 0.603984 14.0785C1.80221 13.0007 3.03568 12.2087 4.28571 11.7023V11.0298C2.98452 10.0639 2.14286 8.52616 2.14286 6.79412C2.14286 3.87026 4.54133 1.5 7.5 1.5C10.4587 1.5 12.8571 3.87026 12.8571 6.79412Z" fill="white"/>
<path d="M10.7143 11.0298L10.3358 10.5199L10.0792 10.7103V11.0298H10.7143ZM10.7143 11.5979H10.0792V12.0394L10.4931 12.1932L10.7143 11.5979ZM14.6652 14.0786L15.2892 13.9608L15.2494 13.7499L15.0899 13.6064L14.6652 14.0786ZM15 19.5L15 20.1351H15.6351V19.5H15ZM0.0120813 19.5L-0.622369 19.5277L-0.595853 20.135L0.0120807 20.135L0.0120813 19.5ZM0.603984 14.0785L0.179285 13.6064L0.06148 13.7124L0.0072626 13.8612L0.603984 14.0785ZM4.28571 11.7023L4.52413 12.291L4.92077 12.1303V11.7023H4.28571ZM4.28571 11.0298H4.92077V10.7103L4.66423 10.5199L4.28571 11.0298ZM11.0928 11.5397C12.5469 10.4603 13.4922 8.73745 13.4922 6.79412H12.2221C12.2221 8.31487 11.484 9.66754 10.3358 10.5199L11.0928 11.5397ZM11.3493 11.5979V11.0298H10.0792V11.5979H11.3493ZM10.4931 12.1932C11.7479 12.6595 13.0052 13.4397 14.2405 14.5507L15.0899 13.6064C13.7568 12.4074 12.3649 11.5338 10.9355 11.0026L10.4931 12.1932ZM14.0411 14.1963C14.1987 15.0312 14.2816 16.3429 14.3235 17.4781C14.3442 18.0389 14.3546 18.5452 14.3598 18.9114C14.3624 19.0944 14.3637 19.2421 14.3643 19.3438C14.3646 19.3947 14.3648 19.434 14.3649 19.4605C14.3649 19.4738 14.3649 19.4838 14.3649 19.4904C14.3649 19.4937 14.3649 19.4962 14.3649 19.4978C14.3649 19.4986 14.3649 19.4992 14.3649 19.4996C14.3649 19.4997 14.3649 19.4999 14.3649 19.4999C14.3649 19.5 14.3649 19.5 14.3649 19.5C14.3649 19.5 14.3649 19.5 15 19.5C15.6351 19.5 15.6351 19.5 15.6351 19.4999C15.6351 19.4999 15.6351 19.4998 15.6351 19.4997C15.6351 19.4996 15.6351 19.4994 15.6351 19.4991C15.6351 19.4986 15.6351 19.4978 15.6351 19.4969C15.6351 19.495 15.635 19.4922 15.635 19.4886C15.635 19.4813 15.635 19.4706 15.635 19.4567C15.6349 19.4289 15.6347 19.3881 15.6344 19.3358C15.6337 19.2311 15.6324 19.0801 15.6298 18.8934C15.6245 18.5203 15.6139 18.004 15.5928 17.4312C15.551 16.2992 15.4665 14.9002 15.2892 13.9608L14.0411 14.1963ZM15 18.8649L0.012082 18.8649L0.0120807 20.135L15 20.1351L15 18.8649ZM0.0120813 19.5C0.646532 19.4723 0.646535 19.4723 0.646537 19.4724C0.646537 19.4724 0.646538 19.4724 0.646538 19.4724C0.646538 19.4724 0.646536 19.4724 0.646531 19.4723C0.646523 19.4721 0.646505 19.4717 0.64648 19.471C0.646428 19.4698 0.646345 19.4678 0.646233 19.465C0.646009 19.4593 0.645671 19.4506 0.645251 19.4388C0.644411 19.4152 0.643241 19.3797 0.641993 19.3333C0.639495 19.2405 0.636685 19.1045 0.63556 18.9344C0.633307 18.5939 0.637822 18.1191 0.664825 17.5832C0.71972 16.4936 0.864947 15.2179 1.20071 14.2958L0.0072626 13.8612C-0.396866 14.971 -0.547592 16.4061 -0.603676 17.5192C-0.632162 18.0847 -0.636894 18.5842 -0.634522 18.9428C-0.633334 19.1223 -0.630362 19.267 -0.627657 19.3675C-0.626304 19.4177 -0.625017 19.457 -0.624051 19.4841C-0.623568 19.4976 -0.623165 19.5081 -0.622874 19.5154C-0.622729 19.5191 -0.622611 19.5219 -0.622526 19.524C-0.622483 19.525 -0.622448 19.5258 -0.622422 19.5265C-0.622409 19.5268 -0.622398 19.527 -0.622389 19.5272C-0.622385 19.5273 -0.62238 19.5274 -0.622377 19.5275C-0.622373 19.5276 -0.622369 19.5277 0.0120813 19.5ZM1.02868 14.5507C2.18126 13.5139 3.3531 12.7653 4.52413 12.291L4.0473 11.1137C2.71827 11.6521 1.42316 12.4875 0.179285 13.6064L1.02868 14.5507ZM3.65066 11.0298V11.7023H4.92077V11.0298H3.65066ZM1.5078 6.79412C1.5078 8.73745 2.45307 10.4603 3.9072 11.5397L4.66423 10.5199C3.51597 9.66754 2.77791 8.31487 2.77791 6.79412H1.5078ZM7.5 0.864945C4.19771 0.864945 1.5078 3.51246 1.5078 6.79412H2.77791C2.77791 4.22805 4.88496 2.13505 7.5 2.13505V0.864945ZM13.4922 6.79412C13.4922 3.51246 10.8023 0.864945 7.5 0.864945V2.13505C10.115 2.13505 12.2221 4.22805 12.2221 6.79412H13.4922Z" fill="black" mask="url(#path-5-inside-3_50_1461)"/>
</svg>
