<svg width="316" height="20" viewBox="0 0 316 20" fill="none" xmlns="http://www.w3.org/2000/svg">
<rect x="0.0507812" y="15" width="90" height="2" fill="white"/>
<rect x="90.0508" y="13" width="225" height="7" fill="white"/>
<rect x="203.051" width="1" height="10" fill="white"/>
<rect x="207.051" width="1" height="10" fill="white"/>
<rect x="211.051" width="1" height="10" fill="white"/>
<rect x="215.051" width="1" height="10" fill="white"/>
<rect x="219.051" width="1" height="10" fill="white"/>
<rect x="223.051" width="1" height="10" fill="white"/>
<rect x="227.051" width="1" height="10" fill="white"/>
<rect x="231.051" width="1" height="10" fill="white"/>
<rect x="235.051" width="1" height="10" fill="white"/>
<rect x="239.051" width="1" height="10" fill="white"/>
<rect x="243.051" width="1" height="10" fill="white"/>
<rect x="247.051" width="1" height="10" fill="white"/>
<rect x="251.051" width="1" height="10" fill="white"/>
<rect x="255.051" width="1" height="10" fill="white"/>
<rect x="259.051" width="1" height="10" fill="white"/>
<rect x="263.051" width="1" height="10" fill="white"/>
<rect x="267.051" width="1" height="10" fill="white"/>
<rect x="271.051" width="1" height="10" fill="white"/>
<rect x="275.051" width="1" height="10" fill="white"/>
<rect x="279.051" width="1" height="10" fill="white"/>
<rect x="283.051" width="1" height="10" fill="white"/>
<rect x="287.051" width="1" height="10" fill="white"/>
<rect x="291.051" width="1" height="10" fill="white"/>
<rect x="295.051" width="1" height="10" fill="white"/>
<rect x="299.051" width="1" height="10" fill="white"/>
<rect x="303.051" width="1" height="10" fill="white"/>
<rect x="307.051" width="1" height="10" fill="white"/>
<rect x="311.051" width="1" height="10" fill="white"/>
</svg>
