<svg width="21" height="14" viewBox="0 0 21 14" fill="current" xmlns="http://www.w3.org/2000/svg">
<path d="M10.1152 0H10.2264C11.254 0.00373699 16.4606 0.0411071 17.8644 0.417297C18.2888 0.532108 18.6755 0.755896 18.9859 1.0663C19.2963 1.3767 19.5195 1.76284 19.6333 2.18614C19.7595 2.65949 19.8483 3.28606 19.9083 3.93256L19.9208 4.06211L19.9483 4.38598L19.9583 4.51553C20.0395 5.65406 20.0495 6.72035 20.0508 6.95329V7.04671C20.0495 7.28837 20.0383 8.4269 19.9483 9.61278L19.9383 9.74357L19.927 9.87312C19.8645 10.5856 19.772 11.2932 19.6333 11.8139C19.5199 12.2373 19.2968 12.6237 18.9863 12.9341C18.6759 13.2446 18.289 13.4682 17.8644 13.5827C16.4143 13.9713 10.9027 13.9988 10.1389 14H9.9614C9.57513 14 7.97753 13.9925 6.30242 13.9352L6.08991 13.9278L5.98115 13.9228L5.76739 13.914L5.55363 13.9053C4.16604 13.8443 2.84471 13.7459 2.23592 13.5815C1.8115 13.4671 1.4247 13.2436 1.11425 12.9334C0.803808 12.6232 0.580623 12.2371 0.467057 11.8139C0.328299 11.2944 0.235793 10.5856 0.173289 9.87312L0.163288 9.74232L0.153288 9.61278C0.0915933 8.76871 0.0574065 7.92288 0.0507812 7.07661L0.0507813 6.92339C0.0532814 6.65557 0.063282 5.73005 0.130786 4.7086L0.139537 4.5803L0.143287 4.51553L0.153288 4.38598L0.180789 4.06211L0.19329 3.93256C0.253294 3.28606 0.342049 2.65824 0.468307 2.18614C0.581681 1.76267 0.804781 1.37635 1.11524 1.06589C1.4257 0.755437 1.8126 0.531764 2.23717 0.417297C2.84596 0.255361 4.16729 0.155708 5.55488 0.0934246L5.76739 0.084705L5.9824 0.0772313L6.08991 0.0734942L6.30367 0.0647746C7.49338 0.0266257 8.68358 0.00544711 9.8739 0.00124572H10.1152V0ZM8.05128 3.99858V10.0002L13.2479 7.00062L8.05128 3.99858Z" fill="current"/>
</svg>
